#N canvas 54 0 1304 725 10;
#X obj 83 7 receive fromGUI;
#X floatatom 36 154 5 0 0 0 - - -;
#X obj 805 29 receive fromSystem;
#X obj 888 293 unpack 0 0 0;
#X obj 83 58 list trim;
#X obj 806 84 list trim;
#N canvas 54 0 1304 725 FM_synth 1;
#X obj 474 392 *~;
#X obj 474 466 cos~;
#X obj 551 367 wrap~;
#X obj 504 367 -~;
#X obj 474 441 +~;
#X obj 474 493 -~;
#X obj 493 519 *~;
#X obj 504 337 samphold~;
#X obj 435 275 line~;
#X obj 435 252 pack 0 50;
#X text 962 252 index;
#X text 962 272 (percent);
#X obj 708 333 cos~;
#X obj 812 343 line~;
#X obj 707 371 *~;
#X obj 812 297 / 100;
#X obj 812 320 pack 0 50;
#X obj 474 415 +~;
#X text 201 367 both phases-->;
#X text 170 350 add modulator to;
#X obj 474 545 +~;
#X obj 783 545 vline~;
#X msg 987 528 0 800;
#X obj 991 501 bng 15 250 50 0 empty empty empty 17 7 0 10 -262144
-1 -1;
#X text 819 494 Note ON;
#X text 1015 503 Note OFF;
#X msg 784 518 1 600 \, 0.7 600 600;
#X obj 786 483 bng 15 250 50 0 empty empty empty 17 7 0 10 -262144
-1 -1;
#X obj 641 604 *~;
#X obj 240 121 mtof;
#X text 288 63 Nota MIDI;
#X obj 440 200 hsl 128 15 5 89 0 0 empty empty empty -2 -8 0 10 -262144
-1 -1 0 1;
#X floatatom 392 229 5 0 0 0 - - -;
#X obj 114 213 bp~;
#X obj 103 183 noise~;
#X obj 189 181 vsl 15 128 20 400 0 0 empty empty empty 0 -9 0 10 -262144
-1 -1 0 1;
#X floatatom 178 322 5 0 0 0 - - -;
#X floatatom 172 488 5 0 0 0 - - -;
#X floatatom 119 475 5 0 0 0 - - -;
#X obj 113 515 *~;
#X obj 174 514 *~;
#X obj 136 573 +~;
#X obj 114 351 *~ 10;
#X obj 70 314 vsl 15 128 0.2 0.8 0 0 empty empty empty 0 -9 0 10 -262144
-1 -1 0 1;
#X obj 171 463 expr (1-$f1);
#X obj 708 423 *~;
#X obj 251 415 *~ 0.5;
#X obj 815 267 hsl 128 15 20 1000 0 0 empty empty empty -2 -8 0 10
-262144 -1 -1 0 1;
#X obj 434 224 / 10;
#X msg 176 142 200;
#X obj 640 666 hip~;
#X obj 629 691 dac~;
#X obj 322 291 phasor~ 440;
#X floatatom 395 259 5 0 0 0 - - -;
#X floatatom 858 290 5 0 0 0 - - -;
#X obj 640 629 *~ 1;
#X obj 19 666 inlet;
#X obj 365 667 inlet;
#X obj 134 668 inlet;
#X obj 435 174 r partials;
#X obj 19 686 s partials;
#X obj 366 687 s mod;
#X obj 812 239 r mod;
#X obj 86 667 inlet;
#X floatatom 652 168 5 0 0 0 - - -;
#X obj 649 147 hsl 128 15 0 1 0 0 empty empty empty -2 -8 0 10 -262144
-1 -1 0 1;
#X floatatom 619 220 5 0 0 0 - - -;
#X obj 845 594 r volume;
#X obj 458 667 inlet;
#X obj 458 687 s volume;
#X obj 513 666 inlet;
#X obj 513 687 s noise;
#X obj 49 280 r noise;
#X obj 108 140 r filter;
#X obj 403 667 inlet;
#X obj 403 687 s filter;
#X obj 241 668 inlet;
#X obj 241 688 s midi;
#X obj 163 59 r midi;
#X floatatom 239 89 5 0 0 0 - - -;
#X obj 185 668 inlet;
#X obj 185 688 s switch;
#X obj 985 590 r switch;
#X obj 86 687 s gridX;
#X obj 135 688 s gridY;
#X obj 682 110 r gridX;
#X obj 717 596 r gridY;
#X obj 962 627 tgl 15 0 empty empty empty 17 7 0 10 -262144 -1 -1 0
1;
#X text 115 640 From GUI;
#X text 422 642 From System;
#X floatatom 329 109 5 0 0 0 - - -;
#X msg 238 67 69;
#X obj 689 252 phasor~ 440;
#X obj 1016 637 switch~;
#X obj 644 192 expr ($f1+1)*$f2;
#X obj 297 668 inlet;
#X obj 623 120 bang;
#X obj 715 643 +;
#X obj 856 622 expr ($f1+3)/4;
#X floatatom 709 692 5 0 0 0 - - -;
#X obj 715 620 expr ($f1+0.5)/1.5;
#X obj 297 688 s noteON;
#X obj 1104 323 r noteON;
#X obj 1117 349 expr 1-$f1;
#X floatatom 1120 380 5 0 0 0 - - -;
#X obj 1081 394 tgl 15 0 empty empty empty 17 7 0 10 -262144 -1 -1
0 1;
#X obj 1034 391 bang;
#X obj 1047 353 t b f;
#X obj 1033 438 spigot;
#X obj 1147 437 tgl 15 0 empty empty empty 17 7 0 10 -262144 -1 -1
0 1;
#X obj 1107 443 bang;
#X obj 1120 405 t b f;
#X obj 1107 467 spigot;
#X obj 157 183 * 3;
#X obj 864 661 bang;
#X obj 710 665 clip 0 1;
#X obj 593 645 *~ 0.5;
#X connect 0 0 17 0;
#X connect 1 0 5 0;
#X connect 2 0 3 1;
#X connect 2 0 6 1;
#X connect 3 0 0 1;
#X connect 4 0 1 0;
#X connect 5 0 6 0;
#X connect 6 0 20 1;
#X connect 7 0 3 0;
#X connect 7 0 2 0;
#X connect 8 0 7 0;
#X connect 9 0 8 0;
#X connect 12 0 14 0;
#X connect 13 0 14 1;
#X connect 14 0 45 0;
#X connect 15 0 16 0;
#X connect 16 0 13 0;
#X connect 17 0 4 0;
#X connect 20 0 40 1;
#X connect 21 0 28 1;
#X connect 21 0 45 1;
#X connect 22 0 21 0;
#X connect 23 0 22 0;
#X connect 26 0 21 0;
#X connect 27 0 26 0;
#X connect 28 0 55 0;
#X connect 29 0 90 0;
#X connect 29 0 94 1;
#X connect 29 0 52 0;
#X connect 29 0 96 0;
#X connect 29 0 113 0;
#X connect 31 0 32 0;
#X connect 31 0 48 0;
#X connect 33 0 42 0;
#X connect 34 0 33 0;
#X connect 35 0 33 2;
#X connect 35 0 36 0;
#X connect 37 0 40 0;
#X connect 38 0 39 1;
#X connect 39 0 41 0;
#X connect 40 0 41 1;
#X connect 41 0 28 0;
#X connect 42 0 39 0;
#X connect 42 0 46 0;
#X connect 43 0 38 0;
#X connect 43 0 44 0;
#X connect 44 0 37 0;
#X connect 45 0 17 1;
#X connect 46 0 5 1;
#X connect 46 0 20 0;
#X connect 47 0 15 0;
#X connect 47 0 54 0;
#X connect 48 0 9 0;
#X connect 48 0 53 0;
#X connect 49 0 35 0;
#X connect 50 0 51 0;
#X connect 50 0 51 1;
#X connect 52 0 7 1;
#X connect 52 0 0 0;
#X connect 52 0 4 1;
#X connect 55 0 116 0;
#X connect 56 0 60 0;
#X connect 57 0 61 0;
#X connect 58 0 84 0;
#X connect 59 0 31 0;
#X connect 62 0 47 0;
#X connect 63 0 83 0;
#X connect 65 0 64 0;
#X connect 65 0 94 0;
#X connect 65 0 66 0;
#X connect 67 0 98 0;
#X connect 68 0 69 0;
#X connect 70 0 71 0;
#X connect 72 0 43 0;
#X connect 73 0 35 0;
#X connect 74 0 75 0;
#X connect 76 0 77 0;
#X connect 78 0 29 0;
#X connect 78 0 79 0;
#X connect 79 0 29 0;
#X connect 80 0 81 0;
#X connect 82 0 87 0;
#X connect 82 0 93 0;
#X connect 85 0 65 0;
#X connect 86 0 100 0;
#X connect 91 0 79 0;
#X connect 92 0 12 0;
#X connect 94 0 66 0;
#X connect 94 0 92 0;
#X connect 95 0 101 0;
#X connect 96 0 65 0;
#X connect 97 0 115 0;
#X connect 98 0 97 1;
#X connect 98 0 114 0;
#X connect 100 0 97 0;
#X connect 102 0 103 0;
#X connect 102 0 107 0;
#X connect 103 0 104 0;
#X connect 104 0 111 0;
#X connect 105 0 108 1;
#X connect 106 0 108 0;
#X connect 107 0 106 0;
#X connect 107 1 105 0;
#X connect 108 0 27 0;
#X connect 109 0 112 1;
#X connect 110 0 112 0;
#X connect 111 0 110 0;
#X connect 111 1 109 0;
#X connect 112 0 23 0;
#X connect 113 0 33 1;
#X connect 114 0 100 0;
#X connect 115 0 55 1;
#X connect 115 0 99 0;
#X connect 116 0 50 0;
#X coords 0 725 1 724 90 90 0;
#X restore 343 466 pd FM_synth;
#X floatatom 647 252 5 0 0 0 - - -;
#X floatatom 771 271 5 0 0 0 - - -;
#X obj 811 325 expr sqrt(($f1^2)+($f2^2)+($f3^2));
#X obj 719 399 expr ($f1/2)+0.5;
#X obj 734 162 unpack 0 0;
#X obj 628 222 expr ($f1+1)*500;
#X obj 734 238 expr (($f1+1)*190)+20;
#X obj 806 113 route /tilts /accel;
#X obj 9 122 expr ($f1*84)+5;
#X obj 124 128 unpack f f;
#X floatatom 95 212 5 0 0 0 - - -;
#X floatatom 192 249 5 0 0 0 - - -;
#X floatatom 408 257 5 0 0 0 - - -;
#X floatatom 497 184 5 0 0 0 - - -;
#X floatatom 283 108 5 0 0 0 - - -;
#X obj 114 84 route /partials /grid /gridRange /switch /midi /octave
;
#X obj 165 223 expr $f1*$f2;
#X obj 57 184 expr $f1*$f2;
#X obj 468 149 expr ($f1+2)*12;
#X obj 394 223 expr (($f1+1)*2)+12+$f2;
#X obj 413 194 bang;
#X obj 336 133 unpack f f f;
#X obj 324 173 expr 5-$f1;
#X floatatom 325 220 5 0 0 0 - - -;
#X obj 857 422 expr ($f1*0.4)+1.4;
#X msg 194 32 100;
#X obj 194 15 loadbang;
#X obj 805 57 speedlimiter;
#X msg 906 57 100;
#X obj 950 39 loadbang;
#N canvas 54 -8 1298 725 speedlimiter 0;
#X obj 306 102 inlet;
#X obj 176 265 metro 100;
#X obj 176 85 inlet;
#N canvas 0 0 720 312 activity-monitor 0;
#X obj 108 74 inlet;
#X obj 108 103 b;
#X obj 108 160 delay 100;
#X obj 168 73 inlet;
#X obj 108 198 outlet;
#X text 198 132 if no activity for X msec \, then bang outlet;
#X connect 0 0 1 0;
#X connect 1 0 2 0;
#X connect 2 0 4 0;
#X connect 3 0 2 1;
#X restore 222 208 pd activity-monitor;
#X msg 222 234 0;
#X msg 176 234 1;
#X obj 176 304 list append;
#X text 352 103 speed limit (ms);
#X obj 176 331 outlet;
#X obj 176 142 spigot 1;
#X obj 244 142 == 0;
#X text 518 274 While metro is running \, don't;
#X obj 176 109 t a b a;
#X text 536 218 3) start metro including output of data;
#X text 536 179 1) store data;
#X text 516 149 If data comes in:;
#X text 537 199 2) start activity monitor;
#X text 537 241 4) close system;
#X obj 481 71 loadbang;
#X obj 481 96 f \$1;
#X obj 481 124 select 0;
#X msg 481 146 100;
#X obj 306 176 f;
#X connect 0 0 22 0;
#X connect 1 0 6 0;
#X connect 2 0 12 0;
#X connect 3 0 4 0;
#X connect 4 0 1 0;
#X connect 4 0 10 0;
#X connect 5 0 1 0;
#X connect 5 0 10 0;
#X connect 6 0 8 0;
#X connect 9 0 5 0;
#X connect 10 0 9 1;
#X connect 12 0 9 0;
#X connect 12 1 3 0;
#X connect 12 2 6 1;
#X connect 18 0 19 0;
#X connect 19 0 20 0;
#X connect 20 0 21 0;
#X connect 20 1 22 0;
#X connect 21 0 22 0;
#X connect 22 0 3 1;
#X connect 22 0 1 1;
#X restore 83 33 pd speedlimiter;
#X connect 0 0 37 0;
#X connect 2 0 34 0;
#X connect 3 0 9 0;
#X connect 3 1 9 1;
#X connect 3 2 9 2;
#X connect 4 0 22 0;
#X connect 5 0 14 0;
#X connect 9 0 10 0;
#X connect 9 0 31 0;
#X connect 10 0 6 8;
#X connect 11 0 12 0;
#X connect 11 1 13 0;
#X connect 12 0 7 0;
#X connect 12 0 6 6;
#X connect 13 0 8 0;
#X connect 13 0 6 7;
#X connect 14 0 11 0;
#X connect 14 1 3 0;
#X connect 15 0 1 0;
#X connect 15 0 6 0;
#X connect 16 0 24 0;
#X connect 16 1 23 0;
#X connect 22 0 15 0;
#X connect 22 1 16 0;
#X connect 22 2 23 1;
#X connect 22 2 24 1;
#X connect 22 3 6 3;
#X connect 22 3 21 0;
#X connect 22 4 28 0;
#X connect 22 5 25 0;
#X connect 23 0 18 0;
#X connect 23 0 6 2;
#X connect 24 0 17 0;
#X connect 24 0 6 1;
#X connect 25 0 20 0;
#X connect 25 0 26 1;
#X connect 25 0 27 0;
#X connect 26 0 6 4;
#X connect 26 0 19 0;
#X connect 27 0 26 0;
#X connect 28 1 29 0;
#X connect 28 2 6 5;
#X connect 29 0 26 0;
#X connect 29 0 30 0;
#X connect 31 0 6 9;
#X connect 32 0 37 1;
#X connect 33 0 32 0;
#X connect 34 0 5 0;
#X connect 35 0 34 1;
#X connect 36 0 35 0;
#X connect 37 0 4 0;
