#N canvas 54 50 1304 725 10;
#X obj 328 294 *~;
#X obj 387 366 cos~;
#X obj 423 267 wrap~;
#X obj 376 267 -~;
#X obj 387 343 +~;
#X obj 385 401 -~;
#X obj 406 427 *~;
#X obj 376 237 samphold~;
#X obj 393 189 line~;
#X text 377 34 freq. (in;
#X text 377 54 tenths of;
#X text 377 74 fundamental);
#X obj 393 166 pack 0 50;
#X obj 282 172 phasor~;
#X floatatom 282 149 4 0 0 0 - - -, f 4;
#X text 267 96 fundamental;
#X text 267 116 (= mod freq);
#X text 561 81 index;
#X text 561 101 (percent);
#X obj 505 243 cos~;
#X obj 561 241 line~;
#X obj 529 300 *~;
#X obj 561 195 / 100;
#X obj 561 218 pack 0 50;
#X obj 328 318 +~;
#X text 564 289 modulating;
#X text 564 305 oscillator;
#X text 201 341 both phases-->;
#X text 170 324 add modulator to;
#X obj 299 597 hip~;
#N canvas 122 211 558 609 fft 0;
#X obj 23 55 inlet~;
#X obj 210 303 inlet;
#X obj 27 215 rfft~;
#X obj 27 248 *~;
#X obj 58 248 *~;
#X obj 27 278 sqrt~;
#X obj 334 200 block~ 4096 1;
#X obj 27 304 biquad~ 0 0 0 0 1;
#X text 91 216 Fourier series;
#X text 96 269 magnitude;
#X text 94 254 calculate;
#X text 21 3 This subpatch computes the spectrum of the incoming signal
with a (rectangular windowed) FFT. FFTs aren't properly introduced
until much later.;
#X text 83 61 signal to analyze;
#X text 195 255 delay two samples;
#X text 193 273 for better graphing;
#X obj 292 79 samplerate~;
#X obj 240 352 metro 500;
#X obj 240 329 inlet;
#X text 293 327 toggle to graph repeatedly;
#X text 264 303 bang to graph once;
#X obj 27 328 /~ 4096;
#X obj 292 54 bang~;
#X msg 211 413 \; pd dsp 1;
#X obj 237 390 tabwrite~ F10-spectrum;
#X obj 292 102 / 4096;
#X obj 58 135 osc~;
#X obj 58 163 +~ 1;
#X obj 28 188 *~;
#X text 113 138 hanning window;
#X obj 254 79 0.5;
#X connect 0 0 27 0;
#X connect 1 0 22 0;
#X connect 1 0 23 0;
#X connect 2 0 3 0;
#X connect 2 0 3 1;
#X connect 2 1 4 0;
#X connect 2 1 4 1;
#X connect 3 0 5 0;
#X connect 4 0 5 0;
#X connect 5 0 7 0;
#X connect 7 0 20 0;
#X connect 15 0 24 0;
#X connect 16 0 23 0;
#X connect 17 0 16 0;
#X connect 17 0 22 0;
#X connect 20 0 23 0;
#X connect 21 0 15 0;
#X connect 21 0 29 0;
#X connect 24 0 25 0;
#X connect 25 0 26 0;
#X connect 26 0 27 1;
#X connect 27 0 2 0;
#X connect 29 0 25 1;
#X restore 342 636 pd fft;
#X obj 403 616 bng 18 250 50 0 empty empty empty 0 -6 0 8 -262144 -1
-1;
#X obj 403 637 tgl 18 0 empty empty empty 0 -6 0 8 -262144 -1 -1 0
1;
#X text 424 636 <-- repeatedly;
#X text 425 616 <-- graph once;
#N canvas 0 50 450 300 (subpatch) 0;
#X array F10-spectrum 520 float 0;
#X coords 0 0.51 519 -0.008 256 130 1 0 0;
#X restore 825 82 graph;
#X text 817 213 0;
#X obj 372 452 +~;
#X text 879 223 -- frequency --;
#X text 1057 214 2700;
#X obj 434 548 vline~;
#X msg 637 531 0 800;
#X obj 637 509 bng 15 250 50 0 empty empty empty 17 7 0 10 -262144
-1 -1;
#X text 469 497 Note ON;
#X text 665 506 Note OFF;
#X msg 434 521 1 600 \, 0.7 600 600;
#X obj 434 497 bng 15 250 50 0 empty empty empty 17 7 0 10 -262144
-1 -1;
#X obj 300 564 *~;
#X obj 207 91 mtof;
#X floatatom 207 69 5 0 0 0 - - -, f 5;
#X text 133 71 Nota MIDI;
#X msg 229 41 69;
#X obj 400 115 hsl 128 15 5 59 0 0 empty empty empty -2 -8 0 10 -262144
-1 -1 0 1;
#X floatatom 350 143 5 0 0 0 - - -, f 5;
#X obj 124 168 bp~, f 4;
#X obj 105 123 noise~;
#X obj 176 157 vsl 15 128 20 400 0 0 empty empty empty 0 -9 0 10 -262144
-1 -1 6016 1;
#X floatatom 178 296 5 0 0 0 - - -, f 5;
#X floatatom 172 462 5 0 0 0 - - -, f 5;
#X floatatom 113 449 5 0 0 0 - - -, f 5;
#X obj 113 489 *~;
#X obj 174 488 *~;
#X obj 136 547 +~;
#X obj 114 325 *~ 10;
#X obj 71 289 vsl 15 128 0.2 0.8 0 0 empty empty empty 0 -9 0 10 -262144
-1 -1 6350 1;
#X obj 171 437 expr (1-$f1);
#X obj 507 364 *~;
#X obj 251 389 *~ 0.5;
#X obj 564 160 hsl 128 15 0 500 0 0 empty empty empty -2 -8 0 10 -262144
-1 -1 0 1;
#X obj 265 636 dac~;
#X obj 392 138 / 10;
#X obj 89 33 bng 15 250 50 0 empty empty empty 17 7 0 10 -262144 -1
-1;
#X msg 25 241 0.5;
#X msg 386 94 5;
#X msg 196 131 200;
#X connect 0 0 24 0;
#X connect 1 0 5 0;
#X connect 2 0 3 1;
#X connect 2 0 6 1;
#X connect 3 0 0 1;
#X connect 4 0 1 0;
#X connect 5 0 6 0;
#X connect 6 0 37 1;
#X connect 7 0 3 0;
#X connect 7 0 2 0;
#X connect 8 0 7 0;
#X connect 12 0 8 0;
#X connect 13 0 7 1;
#X connect 13 0 19 0;
#X connect 13 0 0 0;
#X connect 13 0 4 1;
#X connect 14 0 13 0;
#X connect 19 0 21 0;
#X connect 20 0 21 1;
#X connect 21 0 66 0;
#X connect 22 0 23 0;
#X connect 23 0 20 0;
#X connect 24 0 4 0;
#X connect 29 0 30 0;
#X connect 29 0 69 0;
#X connect 29 0 69 1;
#X connect 31 0 30 1;
#X connect 32 0 30 2;
#X connect 37 0 61 1;
#X connect 40 0 47 1;
#X connect 40 0 66 1;
#X connect 41 0 40 0;
#X connect 42 0 41 0;
#X connect 45 0 40 0;
#X connect 46 0 45 0;
#X connect 47 0 29 0;
#X connect 48 0 14 0;
#X connect 48 0 54 1;
#X connect 49 0 48 0;
#X connect 51 0 49 0;
#X connect 52 0 53 0;
#X connect 52 0 70 0;
#X connect 54 0 63 0;
#X connect 55 0 54 0;
#X connect 56 0 54 2;
#X connect 56 0 57 0;
#X connect 58 0 61 0;
#X connect 59 0 60 1;
#X connect 60 0 62 0;
#X connect 61 0 62 1;
#X connect 62 0 47 0;
#X connect 63 0 60 0;
#X connect 63 0 67 0;
#X connect 64 0 59 0;
#X connect 64 0 65 0;
#X connect 65 0 58 0;
#X connect 66 0 24 1;
#X connect 67 0 5 1;
#X connect 67 0 37 0;
#X connect 68 0 22 0;
#X connect 70 0 12 0;
#X connect 71 0 51 0;
#X connect 71 0 72 0;
#X connect 71 0 73 0;
#X connect 71 0 74 0;
#X connect 72 0 64 0;
#X connect 73 0 52 0;
#X connect 74 0 56 0;
